Animal-Regular.ufo
<glyph name="quotesingle" format="2">
	<advance width="256"/>
	<unicode hex="0027"/>
	<anchor x="105" y="500" name="_top"/>
	<outline>
		<contour>
			<point x="92" y="446" type="curve" smooth="yes"/>
			<point x="73" y="621" type="line" smooth="yes"/>
			<point x="58" y="725"/>
			<point x="194" y="721"/>
			<point x="184" y="640" type="curve" smooth="yes"/>
			<point x="163" y="447" type="line" smooth="yes"/>
			<point x="157" y="402"/>
			<point x="98" y="389"/>
		</contour>
	</outline>
</glyph>
<glyph name="hyphen" format="2">
	<advance width="415"/>
	<unicode hex="002D"/>
	<outline>
		<contour>
			<point x="84" y="283" type="curve" smooth="yes"/>
			<point x="322" y="283" type="line" smooth="yes"/>
			<point x="352" y="283"/>
			<point x="372" y="300"/>
			<point x="372" y="325" type="curve" smooth="yes"/>
			<point x="372" y="350"/>
			<point x="352" y="367"/>
			<point x="321" y="367" type="curve" smooth="yes"/>
			<point x="85" y="367" type="line" smooth="yes"/>
			<point x="55" y="367"/>
			<point x="34" y="350"/>
			<point x="34" y="325" type="curve" smooth="yes"/>
			<point x="34" y="300"/>
			<point x="55" y="283"/>
		</contour>
	</outline>
</glyph>
<glyph name="one" format="2">
	<advance width="304"/>
	<unicode hex="0031"/>
	<outline>
		<contour>
			<point x="194" y="-10" type="curve" smooth="yes"/>
			<point x="223" y="-9"/>
			<point x="242" y="14"/>
			<point x="242" y="47" type="curve"/>
			<point x="243" y="661" type="line" smooth="yes"/>
			<point x="243" y="690"/>
			<point x="225" y="710"/>
			<point x="196" y="710" type="curve" smooth="yes"/>
			<point x="166" y="710"/>
			<point x="138" y="693"/>
			<point x="93" y="670" type="curve" smooth="yes"/>
			<point x="51" y="650"/>
			<point x="28" y="637"/>
			<point x="28" y="611" type="curve" smooth="yes"/>
			<point x="28" y="587"/>
			<point x="42" y="571"/>
			<point x="60" y="571" type="curve" smooth="yes"/>
			<point x="77" y="571"/>
			<point x="90" y="579"/>
			<point x="126" y="595" type="curve" smooth="yes"/>
			<point x="149" y="606"/>
			<point x="173" y="618"/>
			<point x="199" y="631" type="curve"/>
			<point x="147" y="640" type="line"/>
			<point x="146" y="46" type="line"/>
			<point x="146" y="13"/>
			<point x="165" y="-10"/>
		</contour>
	</outline>
</glyph>
<glyph name="six" format="2">
	<advance width="519"/>
	<unicode hex="0036"/>
	<outline>
		<contour>
			<point x="277" y="-10" type="curve" smooth="yes"/>
			<point x="395" y="-10"/>
			<point x="477" y="87"/>
			<point x="477" y="233" type="curve" smooth="yes"/>
			<point x="477" y="375"/>
			<point x="410" y="470"/>
			<point x="315" y="470" type="curve" smooth="yes"/>
			<point x="263" y="470"/>
			<point x="217" y="444"/>
			<point x="186" y="399" type="curve"/>
			<point x="184" y="401" type="line"/>
			<point x="220" y="499"/>
			<point x="294" y="585"/>
			<point x="392" y="640" type="curve" smooth="yes"/>
			<point x="443" y="668"/>
			<point x="396" y="738"/>
			<point x="321" y="693" type="curve" smooth="yes"/>
			<point x="160" y="593"/>
			<point x="66" y="448"/>
			<point x="66" y="252" type="curve" smooth="yes"/>
			<point x="66" y="100"/>
			<point x="156" y="-10"/>
		</contour>
		<contour>
			<point x="271" y="63" type="curve" smooth="yes"/>
			<point x="206" y="63"/>
			<point x="158" y="142"/>
			<point x="158" y="262" type="curve" smooth="yes"/>
			<point x="158" y="343"/>
			<point x="208" y="397"/>
			<point x="270" y="397" type="curve" smooth="yes"/>
			<point x="338" y="397"/>
			<point x="385" y="330"/>
			<point x="385" y="230" type="curve" smooth="yes"/>
			<point x="385" y="130"/>
			<point x="338" y="63"/>
		</contour>
	</outline>
</glyph>
<glyph name="seven" format="2">
	<advance width="501"/>
	<unicode hex="0037"/>
	<outline>
		<contour>
			<point x="251" y="32" type="curve" smooth="yes"/>
			<point x="448" y="628" type="line" smooth="yes"/>
			<point x="462" y="675"/>
			<point x="448" y="700"/>
			<point x="394" y="700" type="curve" smooth="yes"/>
			<point x="100" y="700" type="line" smooth="yes"/>
			<point x="72" y="700"/>
			<point x="53" y="686"/>
			<point x="53" y="661" type="curve" smooth="yes"/>
			<point x="53" y="635"/>
			<point x="72" y="621"/>
			<point x="100" y="621" type="curve" smooth="yes"/>
			<point x="350" y="621" type="line"/>
			<point x="337" y="632" type="line"/>
			<point x="353" y="598" type="line"/>
			<point x="348" y="628" type="line"/>
			<point x="160" y="63" type="line" smooth="yes"/>
			<point x="135" y="-15"/>
			<point x="228" y="-39"/>
		</contour>
	</outline>
</glyph>
<glyph name="A" format="2">
	<advance width="611"/>
	<unicode hex="0041"/>
	<anchor x="303" y="704" name="top"/>
	<outline>
		<contour>
			<point x="77" y="-9" type="curve" smooth="yes"/>
			<point x="101" y="-9"/>
			<point x="118" y="6"/>
			<point x="128" y="40" type="curve" smooth="yes"/>
			<point x="298" y="632" type="line"/>
			<point x="302" y="632" type="line"/>
			<point x="477" y="41" type="line" smooth="yes"/>
			<point x="486" y="7"/>
			<point x="503" y="-9"/>
			<point x="530" y="-9" type="curve" smooth="yes"/>
			<point x="561" y="-9"/>
			<point x="581" y="15"/>
			<point x="569" y="58" type="curve" smooth="yes"/>
			<point x="400" y="631" type="line" smooth="yes"/>
			<point x="383" y="687"/>
			<point x="345" y="710"/>
			<point x="303" y="710" type="curve" smooth="yes"/>
			<point x="262" y="710"/>
			<point x="226" y="688"/>
			<point x="209" y="631" type="curve" smooth="yes"/>
			<point x="42" y="57" type="line" smooth="yes"/>
			<point x="30" y="15"/>
			<point x="47" y="-9"/>
		</contour>
		<contour>
			<point x="154" y="202" type="line"/>
			<point x="453" y="202" type="line"/>
			<point x="437" y="278" type="line"/>
			<point x="171" y="278" type="line"/>
		</contour>
	</outline>
</glyph>
<glyph name="O" format="2">
	<advance width="610"/>
	<unicode hex="004F"/>
	<anchor x="305" y="700" name="top"/>
	<outline>
		<contour>
			<point x="305" y="-10" type="curve" smooth="yes"/>
			<point x="457" y="-10"/>
			<point x="532" y="105"/>
			<point x="532" y="351" type="curve" smooth="yes"/>
			<point x="532" y="613"/>
			<point x="446" y="710"/>
			<point x="305" y="710" type="curve" smooth="yes"/>
			<point x="153" y="710"/>
			<point x="78" y="595"/>
			<point x="78" y="351" type="curve" smooth="yes"/>
			<point x="78" y="87"/>
			<point x="164" y="-10"/>
		</contour>
		<contour>
			<point x="305" y="69" type="curve" smooth="yes"/>
			<point x="214" y="69"/>
			<point x="172" y="151"/>
			<point x="172" y="351" type="curve" smooth="yes"/>
			<point x="172" y="565"/>
			<point x="222" y="631"/>
			<point x="305" y="631" type="curve" smooth="yes"/>
			<point x="396" y="631"/>
			<point x="438" y="549"/>
			<point x="438" y="351" type="curve" smooth="yes"/>
			<point x="438" y="135"/>
			<point x="388" y="69"/>
		</contour>
	</outline>
</glyph>
<glyph name="P" format="2">
	<advance width="560"/>
	<unicode hex="0050"/>
	<outline>
		<contour>
			<point x="130" y="-10" type="curve" smooth="yes"/>
			<point x="158" y="-10"/>
			<point x="177" y="13"/>
			<point x="177" y="47" type="curve" smooth="yes"/>
			<point x="177" y="646" type="line"/>
			<point x="139" y="608" type="line"/>
			<point x="177" y="626"/>
			<point x="214" y="631"/>
			<point x="261" y="631" type="curve" smooth="yes"/>
			<point x="352" y="631"/>
			<point x="413" y="574"/>
			<point x="413" y="460" type="curve" smooth="yes"/>
			<point x="413" y="365"/>
			<point x="365" y="316"/>
			<point x="283" y="307" type="curve" smooth="yes"/>
			<point x="255" y="303"/>
			<point x="236" y="292"/>
			<point x="236" y="270" type="curve" smooth="yes"/>
			<point x="236" y="246"/>
			<point x="255" y="231"/>
			<point x="284" y="231" type="curve" smooth="yes"/>
			<point x="419" y="231"/>
			<point x="507" y="324"/>
			<point x="507" y="466" type="curve" smooth="yes"/>
			<point x="507" y="618"/>
			<point x="423" y="710"/>
			<point x="257" y="710" type="curve" smooth="yes"/>
			<point x="172" y="710"/>
			<point x="83" y="694"/>
			<point x="83" y="640" type="curve" smooth="yes"/>
			<point x="83" y="47" type="line" smooth="yes"/>
			<point x="83" y="13"/>
			<point x="102" y="-10"/>
		</contour>
	</outline>
</glyph>
<glyph name="R" format="2">
	<advance width="596"/>
	<unicode hex="0052"/>
	<outline>
		<contour>
			<point x="129" y="-10" type="curve" smooth="yes"/>
			<point x="156" y="-10"/>
			<point x="175" y="13"/>
			<point x="175" y="49" type="curve" smooth="yes"/>
			<point x="175" y="635" type="line"/>
			<point x="139" y="593" type="line"/>
			<point x="172" y="613"/>
			<point x="222" y="618"/>
			<point x="248" y="618" type="curve" smooth="yes"/>
			<point x="356" y="618"/>
			<point x="413" y="559"/>
			<point x="413" y="482" type="curve" smooth="yes"/>
			<point x="413" y="414"/>
			<point x="360" y="371"/>
			<point x="301" y="345" type="curve" smooth="yes"/>
			<point x="263" y="326"/>
			<point x="257" y="310"/>
			<point x="257" y="296" type="curve" smooth="yes"/>
			<point x="257" y="280"/>
			<point x="268" y="270"/>
			<point x="284" y="251" type="curve"/>
			<point x="444" y="30" type="line" smooth="yes"/>
			<point x="462" y="6"/>
			<point x="480" y="-9"/>
			<point x="497" y="-9" type="curve" smooth="yes"/>
			<point x="526" y="-9"/>
			<point x="558" y="20"/>
			<point x="527" y="62" type="curve" smooth="yes"/>
			<point x="333" y="323" type="line"/>
			<point x="316" y="281" type="line"/>
			<point x="431" y="311"/>
			<point x="504" y="385"/>
			<point x="504" y="486" type="curve" smooth="yes"/>
			<point x="504" y="605"/>
			<point x="426" y="699"/>
			<point x="266" y="699" type="curve" smooth="yes"/>
			<point x="154" y="699"/>
			<point x="83" y="678"/>
			<point x="83" y="620" type="curve" smooth="yes"/>
			<point x="83" y="49" type="line" smooth="yes"/>
			<point x="83" y="13"/>
			<point x="102" y="-10"/>
		</contour>
	</outline>
</glyph>
<glyph name="Z" format="2">
	<advance width="511"/>
	<unicode hex="005A"/>
	<outline>
		<contour>
			<point x="115" y="0" type="curve" smooth="yes"/>
			<point x="424" y="0" type="line" smooth="yes"/>
			<point x="452" y="0"/>
			<point x="471" y="14"/>
			<point x="471" y="39" type="curve" smooth="yes"/>
			<point x="471" y="65"/>
			<point x="452" y="79"/>
			<point x="424" y="79" type="curve" smooth="yes"/>
			<point x="156" y="79" type="line"/>
			<point x="161" y="57" type="line"/>
			<point x="161" y="158" type="line"/>
			<point x="153" y="72" type="line"/>
			<point x="446" y="621" type="line" smooth="yes"/>
			<point x="470" y="669"/>
			<point x="447" y="700"/>
			<point x="387" y="700" type="curve" smooth="yes"/>
			<point x="98" y="700" type="line" smooth="yes"/>
			<point x="70" y="700"/>
			<point x="51" y="686"/>
			<point x="51" y="661" type="curve" smooth="yes"/>
			<point x="51" y="635"/>
			<point x="70" y="621"/>
			<point x="98" y="621" type="curve" smooth="yes"/>
			<point x="349" y="621" type="line"/>
			<point x="341" y="640" type="line"/>
			<point x="342" y="551" type="line"/>
			<point x="350" y="630" type="line"/>
			<point x="55" y="80" type="line" smooth="yes"/>
			<point x="29" y="32"/>
			<point x="54" y="0"/>
		</contour>
	</outline>
</glyph>
<glyph name="underscore" format="2">
	<advance width="405"/>
	<unicode hex="005F"/>
	<outline>
		<contour>
			<point x="84" y="0" type="curve" smooth="yes"/>
			<point x="321" y="0" type="line" smooth="yes"/>
			<point x="352" y="0"/>
			<point x="372" y="17"/>
			<point x="372" y="42" type="curve" smooth="yes"/>
			<point x="372" y="67"/>
			<point x="352" y="84"/>
			<point x="321" y="84" type="curve" smooth="yes"/>
			<point x="85" y="84" type="line" smooth="yes"/>
			<point x="54" y="84"/>
			<point x="33" y="67"/>
			<point x="33" y="42" type="curve" smooth="yes"/>
			<point x="33" y="17"/>
			<point x="54" y="0"/>
		</contour>
	</outline>
</glyph>
<glyph name="d" format="2">
	<advance width="521"/>
	<unicode hex="0064"/>
	<outline>
		<contour>
			<point x="68" y="251" type="curve" smooth="yes"/>
			<point x="68" y="104"/>
			<point x="129" y="-10"/>
			<point x="241" y="-10" type="curve" smooth="yes"/>
			<point x="305" y="-10"/>
			<point x="346" y="29"/>
			<point x="364" y="70" type="curve"/>
			<point x="368" y="70" type="line"/>
			<point x="368" y="37" type="line" smooth="yes"/>
			<point x="368" y="7"/>
			<point x="389" y="-10"/>
			<point x="412" y="-10" type="curve" smooth="yes"/>
			<point x="434" y="-10"/>
			<point x="454" y="6"/>
			<point x="454" y="36" type="curve" smooth="yes"/>
			<point x="454" y="713" type="line" smooth="yes"/>
			<point x="454" y="741"/>
			<point x="436" y="760"/>
			<point x="411" y="760" type="curve" smooth="yes"/>
			<point x="385" y="760"/>
			<point x="368" y="741"/>
			<point x="368" y="713" type="curve" smooth="yes"/>
			<point x="368" y="448" type="line"/>
			<point x="363" y="448" type="line"/>
			<point x="348" y="483"/>
			<point x="304" y="510"/>
			<point x="247" y="510" type="curve" smooth="yes"/>
			<point x="135" y="510"/>
			<point x="68" y="406"/>
		</contour>
		<contour>
			<point x="157" y="255" type="curve" smooth="yes"/>
			<point x="157" y="364"/>
			<point x="198" y="437"/>
			<point x="268" y="437" type="curve" smooth="yes"/>
			<point x="310" y="437"/>
			<point x="356" y="421"/>
			<point x="368" y="365" type="curve" smooth="yes"/>
			<point x="368" y="168" type="line" smooth="yes"/>
			<point x="368" y="105"/>
			<point x="324" y="63"/>
			<point x="263" y="63" type="curve" smooth="yes"/>
			<point x="197" y="63"/>
			<point x="157" y="140"/>
		</contour>
	</outline>
</glyph>
<glyph name="f" format="2">
	<advance width="376"/>
	<unicode hex="0066"/>
	<outline>
		<contour>
			<point x="171" y="-10" type="curve" smooth="yes"/>
			<point x="197" y="-10"/>
			<point x="214" y="11"/>
			<point x="214" y="43" type="curve" smooth="yes"/>
			<point x="214" y="597" type="line" smooth="yes"/>
			<point x="214" y="655"/>
			<point x="239" y="690"/>
			<point x="277" y="690" type="curve" smooth="yes"/>
			<point x="312" y="690"/>
			<point x="335" y="675"/>
			<point x="335" y="653" type="curve"/>
			<point x="354" y="713" type="line"/>
			<point x="323" y="713"/>
			<point x="302" y="696"/>
			<point x="302" y="668" type="curve" smooth="yes"/>
			<point x="302" y="637"/>
			<point x="321" y="617"/>
			<point x="350" y="617" type="curve" smooth="yes"/>
			<point x="379" y="617"/>
			<point x="399" y="637"/>
			<point x="399" y="668" type="curve" smooth="yes"/>
			<point x="399" y="724"/>
			<point x="345" y="760"/>
			<point x="264" y="760" type="curve" smooth="yes"/>
			<point x="182" y="760"/>
			<point x="128" y="693"/>
			<point x="128" y="588" type="curve" smooth="yes"/>
			<point x="128" y="43" type="line" smooth="yes"/>
			<point x="128" y="11"/>
			<point x="145" y="-10"/>
		</contour>
		<contour>
			<point x="87" y="427" type="curve" smooth="yes"/>
			<point x="301" y="427" type="line" smooth="yes"/>
			<point x="327" y="427"/>
			<point x="345" y="442"/>
			<point x="345" y="464" type="curve" smooth="yes"/>
			<point x="345" y="485"/>
			<point x="327" y="500"/>
			<point x="300" y="500" type="curve" smooth="yes"/>
			<point x="88" y="500" type="line" smooth="yes"/>
			<point x="61" y="500"/>
			<point x="43" y="485"/>
			<point x="43" y="464" type="curve" smooth="yes"/>
			<point x="43" y="442"/>
			<point x="61" y="427"/>
		</contour>
	</outline>
</glyph>
<glyph name="g" format="2">
	<advance width="506"/>
	<unicode hex="0067"/>
	<outline>
		<contour>
			<point x="251" y="-210" type="curve" smooth="yes"/>
			<point x="368" y="-210"/>
			<point x="447" y="-152"/>
			<point x="447" y="-64" type="curve" smooth="yes"/>
			<point x="447" y="87"/>
			<point x="208" y="34"/>
			<point x="208" y="104" type="curve" smooth="yes"/>
			<point x="208" y="121"/>
			<point x="230" y="132"/>
			<point x="256" y="132" type="curve" smooth="yes"/>
			<point x="362" y="132"/>
			<point x="433" y="208"/>
			<point x="433" y="321" type="curve" smooth="yes"/>
			<point x="433" y="388"/>
			<point x="412" y="423"/>
			<point x="391" y="451" type="curve" smooth="yes"/>
			<point x="386" y="457"/>
			<point x="383" y="465"/>
			<point x="383" y="475" type="curve" smooth="yes"/>
			<point x="383" y="489"/>
			<point x="390" y="500"/>
			<point x="401" y="510" type="curve"/>
			<point x="410" y="503"/>
			<point x="421" y="499"/>
			<point x="432" y="499" type="curve" smooth="yes"/>
			<point x="462" y="499"/>
			<point x="482" y="524"/>
			<point x="482" y="557" type="curve" smooth="yes"/>
			<point x="482" y="589"/>
			<point x="462" y="614"/>
			<point x="427" y="614" type="curve" smooth="yes"/>
			<point x="380" y="614"/>
			<point x="349" y="563"/>
			<point x="352" y="483" type="curve"/>
			<point x="349" y="481" type="line"/>
			<point x="329" y="496"/>
			<point x="292" y="510"/>
			<point x="256" y="510" type="curve" smooth="yes"/>
			<point x="149" y="510"/>
			<point x="77" y="434"/>
			<point x="77" y="321" type="curve" smooth="yes"/>
			<point x="77" y="236"/>
			<point x="128" y="175"/>
			<point x="197" y="150" type="curve"/>
			<point x="197" y="145" type="line"/>
			<point x="154" y="138"/>
			<point x="120" y="116"/>
			<point x="120" y="82" type="curve" smooth="yes"/>
			<point x="120" y="-31"/>
			<point x="358" y="19"/>
			<point x="358" y="-71" type="curve" smooth="yes"/>
			<point x="358" y="-110"/>
			<point x="308" y="-137"/>
			<point x="234" y="-137" type="curve" smooth="yes"/>
			<point x="192" y="-137"/>
			<point x="157" y="-125"/>
			<point x="137" y="-103" type="curve"/>
			<point x="150" y="-98"/>
			<point x="156" y="-85"/>
			<point x="156" y="-70" type="curve" smooth="yes"/>
			<point x="156" y="-45"/>
			<point x="138" y="-25"/>
			<point x="108" y="-25" type="curve" smooth="yes"/>
			<point x="79" y="-25"/>
			<point x="59" y="-43"/>
			<point x="59" y="-71" type="curve" smooth="yes"/>
			<point x="59" y="-154"/>
			<point x="136" y="-210"/>
		</contour>
		<contour>
			<point x="258" y="202" type="curve" smooth="yes"/>
			<point x="200" y="202"/>
			<point x="161" y="250"/>
			<point x="161" y="321" type="curve" smooth="yes"/>
			<point x="161" y="392"/>
			<point x="199" y="440"/>
			<point x="256" y="440" type="curve" smooth="yes"/>
			<point x="312" y="440"/>
			<point x="349" y="392"/>
			<point x="349" y="321" type="curve" smooth="yes"/>
			<point x="349" y="250"/>
			<point x="313" y="202"/>
		</contour>
	</outline>
</glyph>
<glyph name="h" format="2">
	<advance width="530"/>
	<unicode hex="0068"/>
	<outline>
		<contour>
			<point x="120" y="-10" type="curve" smooth="yes"/>
			<point x="146" y="-10"/>
			<point x="163" y="9"/>
			<point x="163" y="37" type="curve" smooth="yes"/>
			<point x="163" y="330" type="line" smooth="yes"/>
			<point x="163" y="400"/>
			<point x="205" y="440"/>
			<point x="267" y="440" type="curve" smooth="yes"/>
			<point x="331" y="440"/>
			<point x="374" y="397"/>
			<point x="374" y="333" type="curve" smooth="yes"/>
			<point x="374" y="37" type="line" smooth="yes"/>
			<point x="374" y="9"/>
			<point x="392" y="-10"/>
			<point x="418" y="-10" type="curve" smooth="yes"/>
			<point x="444" y="-10"/>
			<point x="462" y="9"/>
			<point x="462" y="37" type="curve" smooth="yes"/>
			<point x="462" y="337" type="line" smooth="yes"/>
			<point x="462" y="440"/>
			<point x="398" y="509"/>
			<point x="302" y="509" type="curve" smooth="yes"/>
			<point x="241" y="509"/>
			<point x="193" y="481"/>
			<point x="166" y="434" type="curve"/>
			<point x="163" y="434" type="line"/>
			<point x="163" y="713" type="line" smooth="yes"/>
			<point x="163" y="742"/>
			<point x="146" y="760"/>
			<point x="120" y="760" type="curve" smooth="yes"/>
			<point x="94" y="760"/>
			<point x="77" y="742"/>
			<point x="77" y="713" type="curve" smooth="yes"/>
			<point x="77" y="37" type="line" smooth="yes"/>
			<point x="77" y="9"/>
			<point x="94" y="-10"/>
		</contour>
	</outline>
</glyph>
<glyph name="k" format="2">
	<advance width="484"/>
	<unicode hex="006B"/>
	<outline>
		<contour>
			<point x="408" y="-10" type="curve" smooth="yes"/>
			<point x="431" y="-10"/>
			<point x="448" y="4"/>
			<point x="448" y="26" type="curve" smooth="yes"/>
			<point x="448" y="39"/>
			<point x="442" y="54"/>
			<point x="429" y="69" type="curve" smooth="yes"/>
			<point x="250" y="276" type="line"/>
			<point x="241" y="248" type="line"/>
			<point x="422" y="439" type="line" smooth="yes"/>
			<point x="434" y="450"/>
			<point x="438" y="462"/>
			<point x="438" y="475" type="curve" smooth="yes"/>
			<point x="438" y="494"/>
			<point x="424" y="510"/>
			<point x="399" y="510" type="curve" smooth="yes"/>
			<point x="383" y="510"/>
			<point x="370" y="501"/>
			<point x="353" y="482" type="curve" smooth="yes"/>
			<point x="157" y="259" type="line"/>
			<point x="357" y="21" type="line" smooth="yes"/>
			<point x="375" y="-1"/>
			<point x="393" y="-10"/>
		</contour>
		<contour>
			<point x="122" y="-10" type="curve" smooth="yes"/>
			<point x="149" y="-10"/>
			<point x="166" y="7"/>
			<point x="166" y="54" type="curve"/>
			<point x="166" y="692" type="line"/>
			<point x="166" y="739"/>
			<point x="149" y="756"/>
			<point x="125" y="756" type="curve" smooth="yes"/>
			<point x="95" y="756"/>
			<point x="77" y="739"/>
			<point x="77" y="692" type="curve" smooth="yes"/>
			<point x="77" y="54" type="line" smooth="yes"/>
			<point x="77" y="7"/>
			<point x="95" y="-10"/>
		</contour>
	</outline>
</glyph>
<glyph name="l" format="2">
	<advance width="230"/>
	<unicode hex="006C"/>
	<outline>
		<contour>
			<point x="120" y="-10" type="curve" smooth="yes"/>
			<point x="146" y="-10"/>
			<point x="163" y="9"/>
			<point x="163" y="37" type="curve" smooth="yes"/>
			<point x="163" y="713" type="line" smooth="yes"/>
			<point x="163" y="741"/>
			<point x="146" y="760"/>
			<point x="120" y="760" type="curve" smooth="yes"/>
			<point x="94" y="760"/>
			<point x="77" y="741"/>
			<point x="77" y="713" type="curve" smooth="yes"/>
			<point x="77" y="37" type="line" smooth="yes"/>
			<point x="77" y="9"/>
			<point x="94" y="-10"/>
		</contour>
	</outline>
</glyph>
<glyph name="m" format="2">
	<advance width="824"/>
	<unicode hex="006D"/>
	<outline>
		<contour>
			<point x="115" y="-10" type="curve" smooth="yes"/>
			<point x="140" y="-10"/>
			<point x="158" y="9"/>
			<point x="158" y="37" type="curve" smooth="yes"/>
			<point x="158" y="337" type="line"/>
			<point x="158" y="399"/>
			<point x="199" y="440"/>
			<point x="261" y="440" type="curve" smooth="yes"/>
			<point x="326" y="440"/>
			<point x="369" y="397"/>
			<point x="369" y="333" type="curve" smooth="yes"/>
			<point x="369" y="37" type="line" smooth="yes"/>
			<point x="369" y="9"/>
			<point x="386" y="-10"/>
			<point x="413" y="-10" type="curve" smooth="yes"/>
			<point x="439" y="-10"/>
			<point x="457" y="9"/>
			<point x="457" y="37" type="curve" smooth="yes"/>
			<point x="457" y="337" type="line" smooth="yes"/>
			<point x="457" y="440"/>
			<point x="393" y="509"/>
			<point x="296" y="509" type="curve" smooth="yes"/>
			<point x="232" y="509"/>
			<point x="182" y="478"/>
			<point x="157" y="427" type="curve"/>
			<point x="155" y="428" type="line"/>
			<point x="158" y="444" type="line"/>
			<point x="158" y="463" type="line" smooth="yes"/>
			<point x="158" y="491"/>
			<point x="140" y="510"/>
			<point x="115" y="510" type="curve" smooth="yes"/>
			<point x="89" y="510"/>
			<point x="72" y="491"/>
			<point x="72" y="463" type="curve"/>
			<point x="72" y="37" type="line" smooth="yes"/>
			<point x="72" y="9"/>
			<point x="89" y="-10"/>
		</contour>
		<contour>
			<point x="712" y="-10" type="curve" smooth="yes"/>
			<point x="738" y="-10"/>
			<point x="756" y="9"/>
			<point x="756" y="37" type="curve" smooth="yes"/>
			<point x="756" y="337" type="line" smooth="yes"/>
			<point x="756" y="440"/>
			<point x="692" y="509"/>
			<point x="596" y="509" type="curve" smooth="yes"/>
			<point x="499" y="509"/>
			<point x="435" y="440"/>
			<point x="435" y="337" type="curve"/>
			<point x="457" y="337" type="line"/>
			<point x="457" y="399"/>
			<point x="498" y="440"/>
			<point x="561" y="440" type="curve" smooth="yes"/>
			<point x="625" y="440"/>
			<point x="668" y="397"/>
			<point x="668" y="333" type="curve" smooth="yes"/>
			<point x="668" y="37" type="line" smooth="yes"/>
			<point x="668" y="9"/>
			<point x="686" y="-10"/>
		</contour>
	</outline>
</glyph>
<glyph name="s" format="2">
	<advance width="474"/>
	<unicode hex="0073"/>
	<outline>
		<contour>
			<point x="243" y="-10" type="curve" smooth="yes"/>
			<point x="349" y="-10"/>
			<point x="419" y="47"/>
			<point x="419" y="135" type="curve" smooth="yes"/>
			<point x="419" y="289"/>
			<point x="154" y="260"/>
			<point x="154" y="364" type="curve" smooth="yes"/>
			<point x="154" y="410"/>
			<point x="200" y="438"/>
			<point x="256" y="438" type="curve" smooth="yes"/>
			<point x="310" y="438"/>
			<point x="361" y="412"/>
			<point x="363" y="368" type="curve"/>
			<point x="365" y="409" type="line"/>
			<point x="337" y="409"/>
			<point x="319" y="392"/>
			<point x="319" y="367" type="curve" smooth="yes"/>
			<point x="319" y="343"/>
			<point x="334" y="323"/>
			<point x="365" y="323" type="curve" smooth="yes"/>
			<point x="391" y="323"/>
			<point x="413" y="344"/>
			<point x="413" y="380" type="curve" smooth="yes"/>
			<point x="413" y="446"/>
			<point x="362" y="510"/>
			<point x="243" y="510" type="curve" smooth="yes"/>
			<point x="142" y="510"/>
			<point x="68" y="449"/>
			<point x="68" y="361" type="curve" smooth="yes"/>
			<point x="68" y="187"/>
			<point x="332" y="234"/>
			<point x="332" y="128" type="curve" smooth="yes"/>
			<point x="332" y="89"/>
			<point x="293" y="62"/>
			<point x="234" y="62" type="curve" smooth="yes"/>
			<point x="132" y="62"/>
			<point x="110" y="123"/>
			<point x="78" y="123" type="curve" smooth="yes"/>
			<point x="59" y="123"/>
			<point x="45" y="109"/>
			<point x="45" y="87" type="curve" smooth="yes"/>
			<point x="45" y="37"/>
			<point x="129" y="-10"/>
		</contour>
	</outline>
</glyph>
<glyph name="t" format="2">
	<advance width="428"/>
	<unicode hex="0074"/>
	<outline>
		<contour>
			<point x="258" y="-10" type="curve" smooth="yes"/>
			<point x="311" y="-10"/>
			<point x="376" y="17"/>
			<point x="376" y="59" type="curve" smooth="yes"/>
			<point x="376" y="78"/>
			<point x="362" y="93"/>
			<point x="344" y="93" type="curve" smooth="yes"/>
			<point x="320" y="93"/>
			<point x="303" y="63"/>
			<point x="264" y="63" type="curve" smooth="yes"/>
			<point x="226" y="63"/>
			<point x="204" y="83"/>
			<point x="204" y="119" type="curve" smooth="yes"/>
			<point x="204" y="593" type="line" smooth="yes"/>
			<point x="204" y="621"/>
			<point x="187" y="640"/>
			<point x="161" y="640" type="curve" smooth="yes"/>
			<point x="135" y="640"/>
			<point x="118" y="621"/>
			<point x="118" y="593" type="curve" smooth="yes"/>
			<point x="118" y="143" type="line" smooth="yes"/>
			<point x="118" y="51"/>
			<point x="172" y="-10"/>
		</contour>
		<contour>
			<point x="87" y="427" type="curve" smooth="yes"/>
			<point x="325" y="427" type="line" smooth="yes"/>
			<point x="351" y="427"/>
			<point x="369" y="442"/>
			<point x="369" y="464" type="curve" smooth="yes"/>
			<point x="369" y="485"/>
			<point x="351" y="500"/>
			<point x="324" y="500" type="curve" smooth="yes"/>
			<point x="88" y="500" type="line" smooth="yes"/>
			<point x="61" y="500"/>
			<point x="43" y="485"/>
			<point x="43" y="464" type="curve" smooth="yes"/>
			<point x="43" y="442"/>
			<point x="61" y="427"/>
		</contour>
	</outline>
</glyph>
<glyph name="u" format="2">
	<advance width="525"/>
	<unicode hex="0075"/>
	<anchor x="263" y="500" name="top"/>
	<outline>
		<contour>
			<point x="410" y="-10" type="curve" smooth="yes"/>
			<point x="436" y="-10"/>
			<point x="453" y="9"/>
			<point x="453" y="37" type="curve"/>
			<point x="453" y="463" type="line" smooth="yes"/>
			<point x="453" y="491"/>
			<point x="436" y="510"/>
			<point x="410" y="510" type="curve" smooth="yes"/>
			<point x="384" y="510"/>
			<point x="367" y="491"/>
			<point x="367" y="463" type="curve" smooth="yes"/>
			<point x="367" y="179" type="line" smooth="yes"/>
			<point x="367" y="109"/>
			<point x="325" y="60"/>
			<point x="263" y="60" type="curve" smooth="yes"/>
			<point x="199" y="60"/>
			<point x="156" y="103"/>
			<point x="156" y="167" type="curve" smooth="yes"/>
			<point x="156" y="463" type="line" smooth="yes"/>
			<point x="156" y="491"/>
			<point x="138" y="510"/>
			<point x="112" y="510" type="curve" smooth="yes"/>
			<point x="86" y="510"/>
			<point x="68" y="491"/>
			<point x="68" y="463" type="curve" smooth="yes"/>
			<point x="68" y="163" type="line" smooth="yes"/>
			<point x="68" y="60"/>
			<point x="132" y="-9"/>
			<point x="228" y="-9" type="curve" smooth="yes"/>
			<point x="290" y="-9"/>
			<point x="338" y="19"/>
			<point x="365" y="67" type="curve"/>
			<point x="367" y="67" type="line"/>
			<point x="367" y="37" type="line" smooth="yes"/>
			<point x="367" y="9"/>
			<point x="384" y="-10"/>
		</contour>
	</outline>
</glyph>
<glyph name="w" format="2">
	<advance width="699"/>
	<unicode hex="0077"/>
	<outline>
		<contour>
			<point x="202" y="-9" type="curve" smooth="yes"/>
			<point x="251" y="-9"/>
			<point x="273" y="21"/>
			<point x="280" y="70" type="curve" smooth="yes"/>
			<point x="346" y="470" type="line"/>
			<point x="313" y="437" type="line"/>
			<point x="390" y="437" type="line"/>
			<point x="354" y="470" type="line"/>
			<point x="416" y="70" type="line" smooth="yes"/>
			<point x="423" y="21"/>
			<point x="445" y="-9"/>
			<point x="494" y="-9" type="curve" smooth="yes"/>
			<point x="540" y="-9"/>
			<point x="566" y="21"/>
			<point x="575" y="70" type="curve" smooth="yes"/>
			<point x="652" y="455" type="line" smooth="yes"/>
			<point x="659" y="489"/>
			<point x="639" y="510"/>
			<point x="616" y="510" type="curve" smooth="yes"/>
			<point x="597" y="510"/>
			<point x="578" y="495"/>
			<point x="572" y="461" type="curve" smooth="yes"/>
			<point x="499" y="61" type="line"/>
			<point x="519" y="69" type="line"/>
			<point x="472" y="69" type="line"/>
			<point x="489" y="61" type="line"/>
			<point x="423" y="459" type="line" smooth="yes"/>
			<point x="418" y="492"/>
			<point x="385" y="510"/>
			<point x="350" y="510" type="curve" smooth="yes"/>
			<point x="315" y="510"/>
			<point x="282" y="492"/>
			<point x="277" y="459" type="curve" smooth="yes"/>
			<point x="207" y="60" type="line"/>
			<point x="219" y="69" type="line"/>
			<point x="178" y="69" type="line"/>
			<point x="197" y="60" type="line"/>
			<point x="128" y="460" type="line" smooth="yes"/>
			<point x="123" y="492"/>
			<point x="103" y="508"/>
			<point x="83" y="508" type="curve" smooth="yes"/>
			<point x="61" y="508"/>
			<point x="43" y="490"/>
			<point x="50" y="454" type="curve" smooth="yes"/>
			<point x="122" y="70" type="line" smooth="yes"/>
			<point x="130" y="21"/>
			<point x="157" y="-9"/>
		</contour>
	</outline>
</glyph>
<glyph name="dieresis" format="2">
	<advance width="600"/>
	<unicode hex="00A8"/>
	<anchor x="315" y="500" name="_top"/>
	<outline>
		<contour>
			<point x="421" y="585" type="curve" smooth="yes"/>
			<point x="455" y="585"/>
			<point x="477" y="608"/>
			<point x="477" y="643" type="curve" smooth="yes"/>
			<point x="477" y="676"/>
			<point x="455" y="697"/>
			<point x="421" y="697" type="curve" smooth="yes"/>
			<point x="388" y="697"/>
			<point x="366" y="675"/>
			<point x="366" y="642" type="curve" smooth="yes"/>
			<point x="366" y="608"/>
			<point x="388" y="585"/>
		</contour>
		<contour>
			<point x="208" y="585" type="curve" smooth="yes"/>
			<point x="242" y="585"/>
			<point x="264" y="608"/>
			<point x="264" y="643" type="curve" smooth="yes"/>
			<point x="264" y="676"/>
			<point x="242" y="697"/>
			<point x="208" y="697" type="curve" smooth="yes"/>
			<point x="175" y="697"/>
			<point x="153" y="675"/>
			<point x="153" y="642" type="curve" smooth="yes"/>
			<point x="153" y="608"/>
			<point x="175" y="585"/>
		</contour>
	</outline>
</glyph>
<glyph name="acute" format="2">
	<advance width="258"/>
	<unicode hex="00B4"/>
	<anchor x="104" y="500" name="_top"/>
	<outline>
		<contour>
			<point x="89" y="569" type="curve" smooth="yes"/>
			<point x="194" y="689" type="line" smooth="yes"/>
			<point x="239" y="739"/>
			<point x="151" y="807"/>
			<point x="110" y="730" type="curve" smooth="yes"/>
			<point x="42" y="603" type="line" smooth="yes"/>
			<point x="19" y="562"/>
			<point x="64" y="541"/>
		</contour>
	</outline>
</glyph>
<glyph name="AE" format="2">
	<advance width="768"/>
	<unicode hex="00C6"/>
	<anchor x="379" y="704" name="top"/>
	<outline>
		<contour>
			<point x="69" y="-9" type="curve" smooth="yes"/>
			<point x="94" y="-9"/>
			<point x="116" y="6"/>
			<point x="132" y="40" type="curve" smooth="yes"/>
			<point x="416" y="622" type="line"/>
			<point x="420" y="622" type="line"/>
			<point x="503" y="621" type="line"/>
			<point x="499" y="677"/>
			<point x="451" y="700"/>
			<point x="438" y="700" type="curve" smooth="yes"/>
			<point x="396" y="700"/>
			<point x="355" y="678"/>
			<point x="326" y="621" type="curve" smooth="yes"/>
			<point x="49" y="57" type="line" smooth="yes"/>
			<point x="28" y="14"/>
			<point x="40" y="-9"/>
		</contour>
		<contour>
			<point x="181" y="251" type="line"/>
			<point x="480" y="251" type="line"/>
			<point x="480" y="327" type="line"/>
			<point x="214" y="327" type="line"/>
		</contour>
		<contour>
			<point x="457" y="251" type="line"/>
			<point x="645" y="251" type="line" smooth="yes"/>
			<point x="673" y="251"/>
			<point x="691" y="267"/>
			<point x="691" y="290" type="curve" smooth="yes"/>
			<point x="691" y="314"/>
			<point x="673" y="330"/>
			<point x="644" y="330" type="curve" smooth="yes"/>
			<point x="457" y="330" type="line"/>
		</contour>
		<contour>
			<point x="466" y="0" type="curve" smooth="yes"/>
			<point x="716" y="0" type="line" smooth="yes"/>
			<point x="743" y="0"/>
			<point x="762" y="16"/>
			<point x="762" y="39" type="curve" smooth="yes"/>
			<point x="762" y="63"/>
			<point x="743" y="79"/>
			<point x="715" y="79" type="curve" smooth="yes"/>
			<point x="476" y="79" type="line"/>
			<point x="514" y="51" type="line"/>
			<point x="514" y="650" type="line"/>
			<point x="476" y="621" type="line"/>
			<point x="716" y="621" type="line" smooth="yes"/>
			<point x="743" y="621"/>
			<point x="762" y="637"/>
			<point x="762" y="661" type="curve" smooth="yes"/>
			<point x="762" y="684"/>
			<point x="743" y="700"/>
			<point x="715" y="700" type="curve" smooth="yes"/>
			<point x="438" y="700" type="line" smooth="yes"/>
			<point x="438" y="700"/>
			<point x="420" y="679"/>
			<point x="420" y="647" type="curve"/>
			<point x="420" y="51" type="line" smooth="yes"/>
			<point x="420" y="20"/>
			<point x="439" y="0"/>
		</contour>
	</outline>
</glyph>
<glyph name="fi" format="2">
	<advance width="577"/>
	<unicode hex="FB01"/>
	<outline>
		<contour>
			<point x="43" y="464" type="curve" smooth="yes"/>
			<point x="43" y="442"/>
			<point x="61" y="427"/>
			<point x="87" y="427" type="curve" smooth="yes"/>
			<point x="128" y="427" type="line"/>
			<point x="128" y="43" type="line" smooth="yes"/>
			<point x="128" y="11"/>
			<point x="145" y="-10"/>
			<point x="171" y="-10" type="curve" smooth="yes"/>
			<point x="197" y="-10"/>
			<point x="214" y="11"/>
			<point x="214" y="43" type="curve" smooth="yes"/>
			<point x="214" y="427" type="line"/>
			<point x="418" y="427" type="line"/>
			<point x="418" y="37" type="line" smooth="yes"/>
			<point x="418" y="10"/>
			<point x="435" y="-11"/>
			<point x="461" y="-11" type="curve" smooth="yes"/>
			<point x="487" y="-11"/>
			<point x="504" y="10"/>
			<point x="504" y="37" type="curve" smooth="yes"/>
			<point x="504" y="453" type="line" smooth="yes"/>
			<point x="504" y="481"/>
			<point x="490" y="500"/>
			<point x="463" y="500" type="curve" smooth="yes"/>
			<point x="214" y="500" type="line"/>
			<point x="214" y="572" type="line" smooth="yes"/>
			<point x="214" y="658"/>
			<point x="273" y="696"/>
			<point x="337" y="696" type="curve" smooth="yes"/>
			<point x="364" y="696"/>
			<point x="396" y="686"/>
			<point x="414" y="669" type="curve"/>
			<point x="403" y="664"/>
			<point x="399" y="653"/>
			<point x="399" y="641" type="curve" smooth="yes"/>
			<point x="399" y="610"/>
			<point x="421" y="587"/>
			<point x="451" y="587" type="curve" smooth="yes"/>
			<point x="482" y="587"/>
			<point x="505" y="608"/>
			<point x="505" y="646" type="curve" smooth="yes"/>
			<point x="505" y="712"/>
			<point x="413" y="759"/>
			<point x="326" y="759" type="curve" smooth="yes"/>
			<point x="222" y="759"/>
			<point x="128" y="702"/>
			<point x="128" y="557" type="curve" smooth="yes"/>
			<point x="128" y="500" type="line"/>
			<point x="88" y="500" type="line" smooth="yes"/>
			<point x="61" y="500"/>
			<point x="43" y="485"/>
		</contour>
	</outline>
</glyph>
<glyph name="Q.alt" format="2">
	<advance width="609"/>
	<outline>
		<contour>
			<point x="461" y="-141" type="curve" smooth="yes"/>
			<point x="503" y="-141"/>
			<point x="531" y="-120"/>
			<point x="531" y="-81" type="curve" smooth="yes"/>
			<point x="531" y="-47"/>
			<point x="507" y="-20"/>
			<point x="470" y="-20" type="curve" smooth="yes"/>
			<point x="436" y="-20"/>
			<point x="413" y="-47"/>
			<point x="413" y="-81" type="curve"/>
			<point x="461" y="-71" type="line"/>
			<point x="372" y="-71"/>
			<point x="384" y="46"/>
			<point x="223" y="92" type="curve"/>
			<point x="215" y="63" type="line"/>
			<point x="364" y="43"/>
			<point x="512" y="181"/>
			<point x="512" y="406" type="curve" smooth="yes"/>
			<point x="512" y="588"/>
			<point x="425" y="710"/>
			<point x="295" y="710" type="curve" smooth="yes"/>
			<point x="165" y="710"/>
			<point x="78" y="607"/>
			<point x="78" y="435" type="curve" smooth="yes"/>
			<point x="78" y="299"/>
			<point x="147" y="197"/>
			<point x="250" y="197" type="curve" smooth="yes"/>
			<point x="314" y="197"/>
			<point x="314" y="276"/>
			<point x="252" y="276" type="curve" smooth="yes"/>
			<point x="207" y="276"/>
			<point x="172" y="347"/>
			<point x="172" y="436" type="curve" smooth="yes"/>
			<point x="172" y="560"/>
			<point x="221" y="631"/>
			<point x="295" y="631" type="curve" smooth="yes"/>
			<point x="369" y="631"/>
			<point x="418" y="541"/>
			<point x="418" y="406" type="curve" smooth="yes"/>
			<point x="418" y="209"/>
			<point x="328" y="96"/>
			<point x="228" y="125" type="curve" smooth="yes"/>
			<point x="150" y="146"/>
			<point x="121" y="53"/>
			<point x="200" y="33" type="curve" smooth="yes"/>
			<point x="321" y="3"/>
			<point x="341" y="-141"/>
		</contour>
	</outline>
</glyph>
<glyph name=".notdef" format="2">
	<advance width="766"/>
	<outline>
		<contour>
			<point x="380" y="54" type="curve" smooth="yes"/>
			<point x="488" y="54"/>
			<point x="554" y="120"/>
			<point x="554" y="197" type="curve" smooth="yes"/>
			<point x="554" y="258"/>
			<point x="521" y="307"/>
			<point x="488" y="349" type="curve" smooth="yes"/>
			<point x="461" y="384"/>
			<point x="435" y="414"/>
			<point x="380" y="414" type="curve" smooth="yes"/>
			<point x="325" y="414"/>
			<point x="299" y="384"/>
			<point x="272" y="349" type="curve" smooth="yes"/>
			<point x="239" y="307"/>
			<point x="206" y="258"/>
			<point x="206" y="197" type="curve" smooth="yes"/>
			<point x="206" y="120"/>
			<point x="272" y="54"/>
		</contour>
		<contour>
			<point x="130" y="299" type="curve" smooth="yes"/>
			<point x="181" y="299"/>
			<point x="202" y="336"/>
			<point x="202" y="376" type="curve" smooth="yes"/>
			<point x="202" y="423"/>
			<point x="167" y="467"/>
			<point x="122" y="467" type="curve" smooth="yes"/>
			<point x="81" y="467"/>
			<point x="53" y="434"/>
			<point x="53" y="391" type="curve" smooth="yes"/>
			<point x="53" y="345"/>
			<point x="85" y="299"/>
		</contour>
		<contour>
			<point x="280" y="456" type="curve" smooth="yes"/>
			<point x="322" y="456"/>
			<point x="348" y="484"/>
			<point x="348" y="529" type="curve" smooth="yes"/>
			<point x="348" y="575"/>
			<point x="314" y="633"/>
			<point x="273" y="633" type="curve" smooth="yes"/>
			<point x="215" y="633"/>
			<point x="204" y="585"/>
			<point x="204" y="543" type="curve" smooth="yes"/>
			<point x="204" y="497"/>
			<point x="237" y="456"/>
		</contour>
		<contour>
			<point x="636" y="281" type="curve" smooth="yes"/>
			<point x="681" y="281"/>
			<point x="711" y="323"/>
			<point x="711" y="367" type="curve" smooth="yes"/>
			<point x="711" y="405"/>
			<point x="687" y="442"/>
			<point x="643" y="442" type="curve" smooth="yes"/>
			<point x="601" y="442"/>
			<point x="568" y="401"/>
			<point x="568" y="356" type="curve" smooth="yes"/>
			<point x="568" y="316"/>
			<point x="589" y="281"/>
		</contour>
		<contour>
			<point x="478" y="446" type="curve" smooth="yes"/>
			<point x="521" y="446"/>
			<point x="554" y="488"/>
			<point x="554" y="534" type="curve" smooth="yes"/>
			<point x="554" y="576"/>
			<point x="542" y="624"/>
			<point x="485" y="624" type="curve" smooth="yes"/>
			<point x="443" y="624"/>
			<point x="410" y="566"/>
			<point x="410" y="520" type="curve" smooth="yes"/>
			<point x="410" y="476"/>
			<point x="436" y="446"/>
		</contour>
	</outline>
</glyph>
<glyph name="a.salt" format="2">
	<advance width="520"/>
	<anchor x="473" y="10" name="ogonek"/>
	<anchor x="277" y="0" name="bottom"/>
	<anchor x="285" y="500" name="top"/>
	<outline>
		<contour>
			<point x="410" y="-11" type="curve" smooth="yes"/>
			<point x="435" y="-11"/>
			<point x="452" y="8"/>
			<point x="452" y="36" type="curve" smooth="yes"/>
			<point x="452" y="460" type="line"/>
			<point x="410" y="491"/>
			<point x="351" y="510"/>
			<point x="291" y="510" type="curve" smooth="yes"/>
			<point x="153" y="510"/>
			<point x="68" y="394"/>
			<point x="68" y="231" type="curve" smooth="yes"/>
			<point x="68" y="79"/>
			<point x="138" y="-10"/>
			<point x="242" y="-10" type="curve" smooth="yes"/>
			<point x="299" y="-10"/>
			<point x="342" y="21"/>
			<point x="366" y="74" type="curve"/>
			<point x="368" y="74" type="line"/>
			<point x="368" y="36" type="line" smooth="yes"/>
			<point x="368" y="8"/>
			<point x="385" y="-11"/>
		</contour>
		<contour>
			<point x="265" y="63" type="curve" smooth="yes"/>
			<point x="199" y="63"/>
			<point x="156" y="125"/>
			<point x="156" y="235" type="curve" smooth="yes"/>
			<point x="156" y="348"/>
			<point x="202" y="436"/>
			<point x="295" y="436" type="curve" smooth="yes"/>
			<point x="331" y="436"/>
			<point x="362" y="425"/>
			<point x="393" y="407" type="curve"/>
			<point x="368" y="456" type="line"/>
			<point x="368" y="168" type="line" smooth="yes"/>
			<point x="368" y="105"/>
			<point x="327" y="63"/>
		</contour>
	</outline>
</glyph>
<glyph name="acute.case" format="2">
	<advance width="186"/>
	<anchor x="83" y="700" name="_top"/>
	<outline>
		<contour>
			<point x="23" y="747" type="curve" smooth="yes"/>
			<point x="181" y="804" type="line" smooth="yes"/>
			<point x="242" y="825"/>
			<point x="197" y="922"/>
			<point x="127" y="877" type="curve" smooth="yes"/>
			<point x="-3" y="797" type="line" smooth="yes"/>
			<point x="-41" y="773"/>
			<point x="-11" y="736"/>
		</contour>
	</outline>
</glyph>
<glyph name="dieresis.case" format="2">
	<advance width="600"/>
	<anchor x="315" y="586" name="_top"/>
	<outline>
		<contour>
			<point x="421" y="654" type="curve" smooth="yes"/>
			<point x="455" y="654"/>
			<point x="478" y="678"/>
			<point x="478" y="713" type="curve" smooth="yes"/>
			<point x="478" y="747"/>
			<point x="455" y="769"/>
			<point x="421" y="769" type="curve" smooth="yes"/>
			<point x="387" y="769"/>
			<point x="364" y="746"/>
			<point x="364" y="713" type="curve" smooth="yes"/>
			<point x="364" y="678"/>
			<point x="387" y="654"/>
		</contour>
		<contour>
			<point x="208" y="654" type="curve" smooth="yes"/>
			<point x="243" y="654"/>
			<point x="265" y="678"/>
			<point x="265" y="713" type="curve" smooth="yes"/>
			<point x="265" y="747"/>
			<point x="243" y="769"/>
			<point x="208" y="769" type="curve" smooth="yes"/>
			<point x="174" y="769"/>
			<point x="152" y="746"/>
			<point x="152" y="713" type="curve" smooth="yes"/>
			<point x="152" y="678"/>
			<point x="174" y="654"/>
		</contour>
	</outline>
</glyph>
<glyph name="k.salt" format="2">
	<advance width="508"/>
	<outline>
		<contour>
			<point x="120" y="-10" type="curve" smooth="yes"/>
			<point x="146" y="-10"/>
			<point x="163" y="9"/>
			<point x="163" y="37" type="curve" smooth="yes"/>
			<point x="163" y="313" type="line" smooth="yes"/>
			<point x="163" y="405"/>
			<point x="216" y="437"/>
			<point x="271" y="437" type="curve" smooth="yes"/>
			<point x="335" y="437"/>
			<point x="372" y="398"/>
			<point x="372" y="340" type="curve" smooth="yes"/>
			<point x="372" y="290"/>
			<point x="337" y="259"/>
			<point x="281" y="255" type="curve" smooth="yes"/>
			<point x="259" y="252"/>
			<point x="248" y="242"/>
			<point x="248" y="221" type="curve" smooth="yes"/>
			<point x="248" y="207"/>
			<point x="255" y="196"/>
			<point x="267" y="189" type="curve" smooth="yes"/>
			<point x="272" y="187"/>
			<point x="278" y="181"/>
			<point x="290" y="164" type="curve" smooth="yes"/>
			<point x="381" y="22" type="line" smooth="yes"/>
			<point x="396" y="-1"/>
			<point x="415" y="-10"/>
			<point x="431" y="-10" type="curve" smooth="yes"/>
			<point x="458" y="-10"/>
			<point x="479" y="19"/>
			<point x="452" y="59" type="curve" smooth="yes"/>
			<point x="348" y="215" type="line"/>
			<point x="411" y="232"/>
			<point x="452" y="287"/>
			<point x="452" y="344" type="curve" smooth="yes"/>
			<point x="452" y="444"/>
			<point x="391" y="510"/>
			<point x="301" y="510" type="curve" smooth="yes"/>
			<point x="240" y="510"/>
			<point x="192" y="480"/>
			<point x="165" y="430" type="curve"/>
			<point x="163" y="430" type="line"/>
			<point x="163" y="713" type="line" smooth="yes"/>
			<point x="163" y="741"/>
			<point x="146" y="760"/>
			<point x="120" y="760" type="curve" smooth="yes"/>
			<point x="94" y="760"/>
			<point x="77" y="741"/>
			<point x="77" y="713" type="curve" smooth="yes"/>
			<point x="77" y="37" type="line" smooth="yes"/>
			<point x="77" y="9"/>
			<point x="94" y="-10"/>
		</contour>
	</outline>
</glyph>
<glyph name="y.salt" format="2">
	<advance width="525"/>
	<anchor x="270" y="500" name="top"/>
	<anchor x="263" y="0" name="bottom"/>
	<outline>
		<contour>
			<point x="275" y="-210" type="curve" smooth="yes"/>
			<point x="389" y="-210"/>
			<point x="462" y="-131"/>
			<point x="462" y="-12" type="curve" smooth="yes"/>
			<point x="462" y="468" type="line" smooth="yes"/>
			<point x="462" y="494"/>
			<point x="443" y="511"/>
			<point x="419" y="511" type="curve" smooth="yes"/>
			<point x="393" y="511"/>
			<point x="376" y="492"/>
			<point x="376" y="464" type="curve" smooth="yes"/>
			<point x="376" y="168" type="line" smooth="yes"/>
			<point x="376" y="107"/>
			<point x="340" y="62"/>
			<point x="280" y="62" type="curve" smooth="yes"/>
			<point x="199" y="62"/>
			<point x="165" y="126"/>
			<point x="165" y="221" type="curve" smooth="yes"/>
			<point x="165" y="464" type="line" smooth="yes"/>
			<point x="165" y="492"/>
			<point x="147" y="511"/>
			<point x="121" y="511" type="curve" smooth="yes"/>
			<point x="94" y="511"/>
			<point x="76" y="492"/>
			<point x="76" y="464" type="curve" smooth="yes"/>
			<point x="76" y="207" type="line" smooth="yes"/>
			<point x="76" y="77"/>
			<point x="145" y="-10"/>
			<point x="257" y="-10" type="curve" smooth="yes"/>
			<point x="315" y="-10"/>
			<point x="353" y="23"/>
			<point x="374" y="74" type="curve"/>
			<point x="376" y="74" type="line"/>
			<point x="376" y="-21" type="line" smooth="yes"/>
			<point x="376" y="-90"/>
			<point x="333" y="-137"/>
			<point x="266" y="-137" type="curve" smooth="yes"/>
			<point x="235" y="-137"/>
			<point x="198" y="-132"/>
			<point x="174" y="-118" type="curve"/>
			<point x="180" y="-111"/>
			<point x="184" y="-102"/>
			<point x="184" y="-91" type="curve" smooth="yes"/>
			<point x="184" y="-61"/>
			<point x="163" y="-42"/>
			<point x="132" y="-42" type="curve" smooth="yes"/>
			<point x="100" y="-42"/>
			<point x="81" y="-68"/>
			<point x="81" y="-98" type="curve" smooth="yes"/>
			<point x="81" y="-169"/>
			<point x="162" y="-210"/>
		</contour>
	</outline>
</glyph>
